# xmcd
#
# Track frame offsets: 
#        150
#        10987
#        23625
#        34425
#        45225
#        59550
#        76050
#        86625
#        98150
#        108975
#        119300
#        134250
#
# Disc length: 1948 seconds
#
# Revision: 2
# Processed by: cddbd v1.5.2PL0 Copyright (c) Steve Scherf et al.
# Submitted via: ExactAudioCopy v0.95b4
#
DISCID=90079a0c
DTITLE=Rory Block - High Heeled Blues
DYEAR=1980
DGENRE=Blues
TTITLE0=Walkin' Blues
TTITLE1=Travelin' Blues
TTITLE2=Got to Have You Be My Man
TTITLE3=Devil Got My Man
TTITLE4=Down in the Dumps
TTITLE5=The Water is Wide
TTITLE6=Since You Been Gone
TTITLE7=Crossroad Blues
TTITLE8=Achin' Heart
TTITLE9=Hilarity Rag
TTITLE10=Kind Hearted Man
TTITLE11=Uncloudy Day
EXTD=
EXTT0=
EXTT1=
EXTT2=
EXTT3=
EXTT4=
EXTT5=
EXTT6=
EXTT7=
EXTT8=
EXTT9=
EXTT10=
EXTT11=
PLAYORDER=
